<svg xmlns="http://www.w3.org/2000/svg" width="320.003" height="65.23" viewBox="0 0 320.003 65.23">
  <g id="Group_243" data-name="Group 243" transform="translate(-124.001 -62.997)">
    <g id="Group_1" data-name="Group 1" transform="translate(124.001 62.998)">
      <path id="Path_1" data-name="Path 1" d="M-595.51,582.27l9.152-65.009h47.38c-.382,2.741-.751,5.387-1.12,8.032q-2.381,17.024-4.763,34.049c-.478,3.42-.939,6.842-1.478,10.258a1.344,1.344,0,0,1-.925.893c-8.552.05-17.105.039-25.875.039.255-1.9.452-3.682.777-5.443.046-.249.722-.53,1.113-.541,2.211-.052,4.424-.061,6.635,0,.9.022,1.224-.249,1.353-1.179q2.652-19.091,5.384-38.174c.085-.609.129-1.227.2-1.919H-569.33c-.694,4.911-1.386,9.791-2.071,14.669q-1.805,12.821-3.606,25.641c-.82,5.841-1.652,11.679-2.442,17.524-.109.8-.218,1.338-1.235,1.329-5.384-.039-10.771-.018-16.151-.024A4.088,4.088,0,0,1-595.51,582.27Z" transform="translate(673.958 -517.211)" fill="#fff"/>
      <path id="Path_2" data-name="Path 2" d="M-832.89,528.813c-.257,1.9-.437,3.614-.764,5.3-.059.3-.735.67-1.137.681q-3.315.1-6.635.015c-.915-.022-1.231.286-1.358,1.194q-2.678,19.238-5.424,38.466c-.072.511-.094,1.028-.144,1.615h11.721l8.307-58.968h17.8c-3.056,21.693-6.1,43.288-9.152,64.952H-867.12c.683-4.745,1.369-9.431,2.028-14.122q2.4-17.024,4.769-34.049c.192-1.377.334-2.765.62-4.123.076-.367.6-.913.914-.915C-850.238,528.8-841.684,528.813-832.89,528.813Z" transform="translate(867.12 -517.107)" fill="#fff"/>
      <path id="Path_3" data-name="Path 3" d="M-133.132,590.465h17.871l-2.039,14.61h11.786l2.44-17.537h-29.585l4.147-29.638h47.363c-.349,2.683-.672,5.282-1.03,7.877-.537,3.9-1.074,7.792-1.676,11.677-.065.415-.565,1.091-.873,1.091-5.618.065-11.236.048-17.094.048L-99.8,563.92h-11.764l-2.451,17.614h29.581c-.7,5.066-1.373,9.953-2.06,14.842-.642,4.559-1.31,9.112-1.938,13.674-.1.7-.19,1.133-1.076,1.131q-23.011-.044-46.02-.037a2.164,2.164,0,0,1-.437-.142Z" transform="translate(347.133 -546.11)" fill="#fff"/>
      <path id="Path_4" data-name="Path 4" d="M-408.028,610.841l7.462-53.19h17.8l-6.594,47.157h11.7c.367-2.542.74-5.094,1.091-7.639q2.224-15.739,4.444-31.478c.336-2.372.716-4.741,1.013-7.12.087-.7.295-1.006,1.05-1,5.433.026,10.865.017,16.3.026a3.209,3.209,0,0,1,.576.146l-7.447,53.11Z" transform="translate(540.626 -545.87)" fill="#fff"/>
      <path id="Path_5" data-name="Path 5" d="M50.914,611.083l7.458-53.157h47.389l-4.136,29.546H74.912l.825-5.9h8.844l2.527-17.631H75.394L69.569,605.1H81.281c.426-2.693.821-5.382,1.31-8.054.07-.384.537-1,.825-1,5.618-.059,11.238-.044,17.046-.044l-2.156,15.077Z" transform="translate(214.243 -546.13)" fill="#fff"/>
      <path id="Path_6" data-name="Path 6" d="M-194.028,517.1l-9.152,64.948h-17.8l9.152-64.948Z" transform="translate(407.605 -517.1)" fill="#fff"/>
      <path id="Path_7" data-name="Path 7" d="M-654.891,557.89l-7.441,53.037H-680.1c.369-2.724.714-5.365,1.091-8q2.252-16.1,4.518-32.2c.568-4.038,1.124-8.076,1.746-12.1.055-.358.581-.921.893-.923,5.531-.046,11.059-.017,16.588,0C-655.19,557.7-655.109,557.777-654.891,557.89Z" transform="translate(734.122 -545.949)" fill="#fff"/>
    </g>
  </g>
</svg>
