<svg xmlns="http://www.w3.org/2000/svg" width="26.387" height="26.09" viewBox="0 0 26.387 26.09">
  <g id="Group_435" data-name="Group 435" transform="translate(-1084.613 -45.905)">
    <g id="Group_434" data-name="Group 434" transform="translate(-5366.887 -295)">
      <path id="internet" d="M19.551,25.02H5.477a2.348,2.348,0,0,1-2.346-2.346V13.552H1.307a1.305,1.305,0,0,1-1.3-1.3,1.322,1.322,0,0,1,.386-.928L11.973.216a.782.782,0,0,1,1.082,0L24.627,11.309a1.336,1.336,0,0,1,.4.94,1.3,1.3,0,0,1-1.3,1.3H21.9v9.122A2.348,2.348,0,0,1,19.551,25.02ZM1.953,11.988H3.913a.782.782,0,0,1,.782.782v9.9a.782.782,0,0,0,.782.782H19.551a.782.782,0,0,0,.782-.782v-9.9a.782.782,0,0,1,.782-.782h1.961L12.514,1.865Zm21.581.438h0Zm0,0" transform="translate(6451.996 341.474)" fill="#fff" stroke="#fff" stroke-width="1"/>
      <g id="Group_432" data-name="Group 432" transform="translate(6458.981 351.647)">
        <g id="Union_7" data-name="Union 7" transform="translate(-0.095 -0.052)" fill="none" stroke-linecap="round" stroke-linejoin="round">
          <path d="M6.453,8.726V8.559a2.273,2.273,0,0,1,4.547,0v.167a2.273,2.273,0,1,1-4.547,0ZM0,11V6.286H4.547V11ZM6.453,4.714V0H11V4.714ZM0,2.441V2.273a2.273,2.273,0,0,1,4.547,0v.167A2.273,2.273,0,0,1,0,2.441Z" stroke="none"/>
          <path d="M 8.726400375366211 10.99980068206787 C 7.470900535583496 10.99980068206787 6.453000545501709 9.981900215148926 6.453000545501709 8.726400375366211 L 6.453000545501709 8.559000015258789 C 6.453000545501709 7.303500175476074 7.470900535583496 6.285600185394287 8.726400375366211 6.285600185394287 C 9.981900215148926 6.285600185394287 10.99980068206787 7.303500175476074 10.99980068206787 8.559000015258789 L 10.99980068206787 8.726400375366211 C 10.99980068206787 9.981900215148926 9.981900215148926 10.99980068206787 8.726400375366211 10.99980068206787 Z M 4.546800136566162 10.99980068206787 L 3.410339388665307e-07 10.99980068206787 L 3.410339388665307e-07 6.285600185394287 L 4.546800136566162 6.285600185394287 L 4.546800136566162 10.99980068206787 Z M 10.99980068206787 4.714200496673584 L 6.453000545501709 4.714200496673584 L 6.453000545501709 3.410339388665307e-07 L 10.99980068206787 3.410339388665307e-07 L 10.99980068206787 4.714200496673584 Z M 2.27340030670166 4.714200496673584 C 1.017900347709656 4.714200496673584 3.410339388665307e-07 3.696300268173218 3.410339388665307e-07 2.440800428390503 L 3.410339388665307e-07 2.27340030670166 C 3.410339388665307e-07 1.017900347709656 1.017900347709656 3.410339388665307e-07 2.27340030670166 3.410339388665307e-07 C 3.528900384902954 3.410339388665307e-07 4.546800136566162 1.017900347709656 4.546800136566162 2.27340030670166 L 4.546800136566162 2.440800428390503 C 4.546800136566162 3.696300268173218 3.528900384902954 4.714200496673584 2.27340030670166 4.714200496673584 Z" stroke="none" fill="#fff"/>
        </g>
      </g>
    </g>
    <g id="Ellipse_67" data-name="Ellipse 67" transform="translate(1100 48)" fill="#50b12c" stroke="#000" stroke-width="2">
      <circle cx="5.5" cy="5.5" r="5.5" stroke="none"/>
      <circle cx="5.5" cy="5.5" r="4.5" fill="none"/>
    </g>
  </g>
</svg>
