<svg xmlns="http://www.w3.org/2000/svg" width="163.59" height="33.346" viewBox="0 0 163.59 33.346">
  <g id="Group_243" data-name="Group 243" transform="translate(-124.002 -62.998)">
    <g id="Group_1" data-name="Group 1" transform="translate(124.001 62.998)">
      <path id="Path_1" data-name="Path 1" d="M-595.51,550.494l4.678-33.233h24.221l-.572,4.106-2.435,17.406c-.244,1.748-.48,3.5-.755,5.244a.687.687,0,0,1-.473.456c-4.372.026-8.744.02-13.228.02.131-.972.231-1.882.4-2.783.023-.127.369-.271.569-.277,1.13-.027,2.262-.031,3.392,0,.459.011.626-.127.692-.6q1.356-9.76,2.753-19.515c.043-.311.066-.627.1-.981h-5.958c-.355,2.51-.708,5.005-1.059,7.5q-.923,6.554-1.843,13.108c-.419,2.986-.845,5.971-1.249,8.959-.056.411-.112.684-.631.68-2.753-.02-5.506-.009-8.257-.012A2.1,2.1,0,0,1-595.51,550.494Z" transform="translate(635.614 -517.235)" fill="#131319"/>
      <path id="Path_2" data-name="Path 2" d="M-849.621,523.1c-.132.973-.223,1.848-.391,2.709-.03.154-.376.343-.581.348q-1.695.051-3.392.008c-.468-.011-.629.146-.694.61q-1.369,9.835-2.773,19.664c-.037.261-.048.526-.074.826h5.992l4.247-30.145h9.1c-1.562,11.09-3.119,22.129-4.678,33.2H-867.12c.349-2.426.7-4.821,1.037-7.219q1.227-8.7,2.438-17.406c.1-.7.171-1.414.317-2.108.039-.187.3-.466.468-.468C-858.49,523.09-854.117,523.1-849.621,523.1Z" transform="translate(867.12 -517.112)" fill="#131319"/>
      <path id="Path_3" data-name="Path 3" d="M-134.517,574.548h9.136l-1.042,7.469h6.025l1.247-8.965h-15.124l2.12-15.151h24.212c-.179,1.371-.344,2.7-.527,4.027-.274,1.992-.549,3.983-.857,5.969-.033.212-.289.558-.446.558-2.872.033-5.744.025-8.739.025l1.034-7.5h-6.014l-1.253,9h15.122c-.359,2.59-.7,5.088-1.053,7.587-.328,2.331-.669,4.658-.991,6.99-.049.359-.1.579-.55.578q-11.764-.022-23.526-.019a1.107,1.107,0,0,1-.223-.073Z" transform="translate(243.917 -551.873)" fill="#131319"/>
      <path id="Path_4" data-name="Path 4" d="M-408.028,584.8l3.815-27.192h9.1l-3.371,24.107h5.979c.187-1.3.378-2.6.558-3.905q1.137-8.046,2.272-16.092c.172-1.213.366-2.423.518-3.64.045-.359.151-.514.537-.513,2.777.013,5.554.009,8.333.013a1.633,1.633,0,0,1,.295.075l-3.807,27.15Z" transform="translate(475.814 -551.588)" fill="#131319"/>
      <path id="Path_5" data-name="Path 5" d="M50.914,585.1l3.813-27.175H78.952l-2.114,15.1H63.182l.422-3.018h4.521L69.417,561H63.429l-2.978,21.045h5.987c.218-1.377.42-2.751.669-4.117.036-.2.274-.509.422-.51,2.872-.03,5.745-.022,8.714-.022l-1.1,7.708Z" transform="translate(84.637 -551.896)" fill="#131319"/>
      <path id="Path_6" data-name="Path 6" d="M-207.2,517.1l-4.678,33.2h-9.1l4.678-33.2Z" transform="translate(316.386 -517.1)" fill="#131319"/>
      <path id="Path_7" data-name="Path 7" d="M-667.213,557.781l-3.8,27.113H-680.1c.189-1.392.365-2.743.558-4.092q1.151-8.232,2.31-16.463c.29-2.064.575-4.128.893-6.188.028-.183.3-.471.456-.472,2.827-.023,5.654-.009,8.48,0C-667.366,557.682-667.324,557.723-667.213,557.781Z" transform="translate(707.717 -551.676)" fill="#131319"/>
    </g>
  </g>
</svg>
