<svg xmlns="http://www.w3.org/2000/svg" width="26.494" height="26.564" viewBox="0 0 26.494 26.564">
  <g id="Group_433" data-name="Group 433" transform="translate(-6451.5 -340.43)">
    <path id="internet" d="M19.921,25.493H5.581a2.392,2.392,0,0,1-2.39-2.39V13.809H1.332A1.33,1.33,0,0,1,0,12.481,1.347,1.347,0,0,1,.4,11.536L12.2.221a.8.8,0,0,1,1.1,0l11.791,11.3a1.361,1.361,0,0,1,.4.958,1.33,1.33,0,0,1-1.328,1.328H22.311V23.1A2.392,2.392,0,0,1,19.921,25.493ZM1.989,12.215h2a.8.8,0,0,1,.8.8V23.1a.8.8,0,0,0,.8.8h14.34a.8.8,0,0,0,.8-.8V13.012a.8.8,0,0,1,.8-.8h2L12.751,1.9Zm21.989.446h0Zm0,0" transform="translate(6451.996 341.001)" fill="#3e3b3a" stroke="#3e3c3a" stroke-width="1"/>
    <g id="Group_432" data-name="Group 432" transform="translate(6458.981 351.647)">
      <g id="Union_7" data-name="Union 7" transform="translate(-0.095 -0.052)" fill="none" stroke-linecap="round" stroke-linejoin="round">
        <path d="M6.453,8.726V8.559a2.273,2.273,0,0,1,4.547,0v.167a2.273,2.273,0,1,1-4.547,0ZM0,11V6.286H4.547V11ZM6.453,4.714V0H11V4.714ZM0,2.441V2.273a2.273,2.273,0,0,1,4.547,0v.167A2.273,2.273,0,0,1,0,2.441Z" stroke="none"/>
        <path d="M 8.726400375366211 10.99980068206787 C 7.470900535583496 10.99980068206787 6.453000545501709 9.981900215148926 6.453000545501709 8.726400375366211 L 6.453000545501709 8.559000015258789 C 6.453000545501709 7.303500175476074 7.470900535583496 6.285600185394287 8.726400375366211 6.285600185394287 C 9.981900215148926 6.285600185394287 10.99980068206787 7.303500175476074 10.99980068206787 8.559000015258789 L 10.99980068206787 8.726400375366211 C 10.99980068206787 9.981900215148926 9.981900215148926 10.99980068206787 8.726400375366211 10.99980068206787 Z M 4.546800136566162 10.99980068206787 L 3.410339388665307e-07 10.99980068206787 L 3.410339388665307e-07 6.285600185394287 L 4.546800136566162 6.285600185394287 L 4.546800136566162 10.99980068206787 Z M 10.99980068206787 4.714200496673584 L 6.453000545501709 4.714200496673584 L 6.453000545501709 3.410339388665307e-07 L 10.99980068206787 3.410339388665307e-07 L 10.99980068206787 4.714200496673584 Z M 2.27340030670166 4.714200496673584 C 1.017900347709656 4.714200496673584 3.410339388665307e-07 3.696300268173218 3.410339388665307e-07 2.440800428390503 L 3.410339388665307e-07 2.27340030670166 C 3.410339388665307e-07 1.017900347709656 1.017900347709656 3.410339388665307e-07 2.27340030670166 3.410339388665307e-07 C 3.528900384902954 3.410339388665307e-07 4.546800136566162 1.017900347709656 4.546800136566162 2.27340030670166 L 4.546800136566162 2.440800428390503 C 4.546800136566162 3.696300268173218 3.528900384902954 4.714200496673584 2.27340030670166 4.714200496673584 Z" stroke="none" fill="#3e3b3a"/>
      </g>
    </g>
  </g>
</svg>
