<svg xmlns="http://www.w3.org/2000/svg" width="25.346" height="24.33" viewBox="0 0 25.346 24.33">
  <g id="Icon_feather-shopping-cart" data-name="Icon feather-shopping-cart" transform="translate(1.5 1.5)">
    <path id="Path_5" data-name="Path 5" d="M14.031,31.016A1.016,1.016,0,1,1,13.016,30,1.016,1.016,0,0,1,14.031,31.016Z" transform="translate(-4.89 -10.702)" fill="none" stroke="#3e3c3b" stroke-linecap="round" stroke-linejoin="round" stroke-width="3"/>
    <path id="Path_6" data-name="Path 6" d="M30.531,31.016A1.016,1.016,0,1,1,29.516,30,1.016,1.016,0,0,1,30.531,31.016Z" transform="translate(-10.217 -10.702)" fill="none" stroke="#3e3c3b" stroke-linecap="round" stroke-linejoin="round" stroke-width="3"/>
    <path id="Path_7" data-name="Path 7" d="M1.5,1.5H5.563L8.285,15.1a2.031,2.031,0,0,0,2.031,1.635h9.873A2.031,2.031,0,0,0,22.22,15.1l1.625-8.522H6.579" transform="translate(-1.5 -1.5)" fill="none" stroke="#3e3c3b" stroke-linecap="round" stroke-linejoin="round" stroke-width="3"/>
  </g>
</svg>
